<svg width="25" height="26" viewBox="0 0 25 26" fill="none" xmlns="http://www.w3.org/2000/svg">
<path d="M12.75 3.8125C17.658 3.8125 21.9375 7.86419 21.9375 12.5406C21.9375 17.1381 17.7544 20.7561 12.75 20.7561C11.6796 20.7567 10.616 20.5873 9.59869 20.2544C9.17239 20.6679 9.02631 20.8085 8.12134 21.6813C7.46902 22.1737 6.8553 22.3409 6.30681 22.0304C5.75372 21.718 5.58742 21.1098 5.70043 20.3087L6.06793 18.1781C4.47206 16.6768 3.5625 14.6923 3.5625 12.5406C3.5625 7.86419 7.84112 3.8125 12.75 3.8125ZM12.75 5.09875C8.53661 5.09875 4.84875 8.59 4.84875 12.5406C4.84875 14.4195 5.68665 16.1495 7.164 17.4376L7.18237 17.4532L7.45524 17.6902L7.39369 18.0485L7.2669 18.7872L7.23291 18.9838L6.97106 20.5071C6.95562 20.6097 6.94642 20.7131 6.9435 20.8167V20.904C6.9435 20.9086 6.94258 20.9104 6.94166 20.9114C6.94809 20.9022 7.07304 20.8627 7.28711 20.7065L9.2808 18.7716L9.66116 18.9149C10.6492 19.2836 11.6954 19.4718 12.75 19.4708C17.0828 19.4708 20.6513 16.3838 20.6513 12.5406C20.6513 8.59092 16.9634 5.09875 12.75 5.09875ZM8.36481 10.9907C8.5499 10.9839 8.73445 11.0145 8.90744 11.0807C9.08043 11.1469 9.23831 11.2472 9.37165 11.3758C9.50498 11.5043 9.61104 11.6585 9.68347 11.8289C9.75591 11.9994 9.79324 12.1827 9.79324 12.3679C9.79324 12.5531 9.75591 12.7364 9.68347 12.9069C9.61104 13.0773 9.50498 13.2315 9.37165 13.36C9.23831 13.4886 9.08043 13.5889 8.90744 13.6551C8.73445 13.7213 8.5499 13.7519 8.36481 13.7451C8.00825 13.7321 7.67065 13.5813 7.42301 13.3244C7.17537 13.0676 7.03699 12.7247 7.03699 12.3679C7.03699 12.0111 7.17537 11.6682 7.42301 11.4114C7.67065 11.1545 8.00825 11.0037 8.36481 10.9907ZM12.9567 10.9907C13.1418 10.9839 13.3264 11.0145 13.4994 11.0807C13.6723 11.1469 13.8302 11.2472 13.9636 11.3758C14.0969 11.5043 14.2029 11.6585 14.2754 11.8289C14.3478 11.9994 14.3852 12.1827 14.3852 12.3679C14.3852 12.5531 14.3478 12.7364 14.2754 12.9069C14.2029 13.0773 14.0969 13.2315 13.9636 13.36C13.8302 13.4886 13.6723 13.5889 13.4994 13.6551C13.3264 13.7213 13.1418 13.7519 12.9567 13.7451C12.6002 13.7321 12.2626 13.5813 12.0149 13.3244C11.7673 13.0676 11.6289 12.7247 11.6289 12.3679C11.6289 12.0111 11.7673 11.6682 12.0149 11.4114C12.2626 11.1545 12.6002 11.0037 12.9567 10.9907ZM17.5477 10.9907C17.7328 10.9839 17.9174 11.0145 18.0903 11.0807C18.2633 11.1469 18.4212 11.2472 18.5546 11.3758C18.6879 11.5043 18.7939 11.6585 18.8664 11.8289C18.9388 11.9994 18.9762 12.1827 18.9762 12.3679C18.9762 12.5531 18.9388 12.7364 18.8664 12.9069C18.7939 13.0773 18.6879 13.2315 18.5546 13.36C18.4212 13.4886 18.2633 13.5889 18.0903 13.6551C17.9174 13.7213 17.7328 13.7519 17.5477 13.7451C17.1912 13.7321 16.8536 13.5813 16.6059 13.3244C16.3583 13.0676 16.2199 12.7247 16.2199 12.3679C16.2199 12.0111 16.3583 11.6682 16.6059 11.4114C16.8536 11.1545 17.1912 11.0037 17.5477 10.9907Z" fill="#E94E1B"/>
</svg>
