<svg width="18" height="19" viewBox="0 0 18 19" fill="none" xmlns="http://www.w3.org/2000/svg">
<path d="M9 0.5C13.8078 0.5 18 4.469 18 9.05C18 13.5536 13.9023 17.0978 9 17.0978C7.95148 17.0984 6.90952 16.9325 5.913 16.6064C5.4954 17.0114 5.3523 17.1491 4.4658 18.0041C3.8268 18.4865 3.2256 18.6503 2.6883 18.3461C2.1465 18.0401 1.9836 17.4443 2.0943 16.6595L2.4543 14.5724C0.891 13.1018 0 11.1578 0 9.05C0 4.469 4.1913 0.5 9 0.5ZM9 1.76C4.8726 1.76 1.26 5.18 1.26 9.05C1.26 10.8905 2.0808 12.5852 3.528 13.847L3.546 13.8623L3.8133 14.0945L3.753 14.4455L3.6288 15.1691L3.5955 15.3617L3.339 16.8539C3.32387 16.9544 3.31485 17.0556 3.312 17.1572V17.2427C3.312 17.2472 3.3111 17.249 3.3102 17.2499C3.3165 17.2409 3.4389 17.2022 3.6486 17.0492L5.6016 15.1538L5.9742 15.2942C6.94208 15.6553 7.96694 15.8398 9 15.8387C13.2444 15.8387 16.74 12.8147 16.74 9.05C16.74 5.1809 13.1274 1.76 9 1.76ZM4.7043 7.5317C4.88561 7.52507 5.0664 7.55507 5.23586 7.61988C5.40532 7.6847 5.55998 7.78301 5.69059 7.90893C5.8212 8.03486 5.92509 8.18583 5.99605 8.35281C6.06701 8.51979 6.10358 8.69936 6.10358 8.8808C6.10358 9.06223 6.06701 9.2418 5.99605 9.40878C5.92509 9.57577 5.8212 9.72673 5.69059 9.85266C5.55998 9.97859 5.40532 10.0769 5.23586 10.1417C5.0664 10.2065 4.88561 10.2365 4.7043 10.2299C4.35502 10.2171 4.02431 10.0694 3.78172 9.8178C3.53914 9.56619 3.40359 9.23031 3.40359 8.8808C3.40359 8.53129 3.53914 8.1954 3.78172 7.94379C4.02431 7.69218 4.35502 7.54446 4.7043 7.5317ZM9.2025 7.5317C9.38381 7.52507 9.5646 7.55507 9.73406 7.61988C9.90352 7.6847 10.0582 7.78301 10.1888 7.90893C10.3194 8.03486 10.4233 8.18583 10.4943 8.35281C10.5652 8.51979 10.6018 8.69936 10.6018 8.8808C10.6018 9.06223 10.5652 9.2418 10.4943 9.40878C10.4233 9.57577 10.3194 9.72673 10.1888 9.85266C10.0582 9.97859 9.90352 10.0769 9.73406 10.1417C9.5646 10.2065 9.38381 10.2365 9.2025 10.2299C8.85322 10.2171 8.52251 10.0694 8.27992 9.8178C8.03733 9.56619 7.90178 9.23031 7.90178 8.8808C7.90178 8.53129 8.03733 8.1954 8.27992 7.94379C8.52251 7.69218 8.85322 7.54446 9.2025 7.5317ZM13.6998 7.5317C13.8811 7.52507 14.0619 7.55507 14.2314 7.61988C14.4008 7.6847 14.5555 7.78301 14.6861 7.90893C14.8167 8.03486 14.9206 8.18583 14.9915 8.35281C15.0625 8.51979 15.0991 8.69936 15.0991 8.8808C15.0991 9.06223 15.0625 9.2418 14.9915 9.40878C14.9206 9.57577 14.8167 9.72673 14.6861 9.85266C14.5555 9.97859 14.4008 10.0769 14.2314 10.1417C14.0619 10.2065 13.8811 10.2365 13.6998 10.2299C13.3505 10.2171 13.0198 10.0694 12.7772 9.8178C12.5346 9.56619 12.3991 9.23031 12.3991 8.8808C12.3991 8.53129 12.5346 8.1954 12.7772 7.94379C13.0198 7.69218 13.3505 7.54446 13.6998 7.5317Z" fill="#8A9B9B"/>
</svg>
