<svg width="19" height="18" viewBox="0 0 19 18" fill="none" xmlns="http://www.w3.org/2000/svg">
<path fill-rule="evenodd" clip-rule="evenodd" d="M10.3974 1.18587C10.2748 0.920166 10.009 0.75 9.71636 0.75C9.42376 0.75 9.15787 0.920166 9.03532 1.18587L6.88353 5.85094L1.78184 6.45583C1.49127 6.49028 1.24727 6.69057 1.15685 6.96885C1.06643 7.24713 1.14611 7.55258 1.36093 7.75125L5.13274 11.2393L4.13151 16.2782C4.07449 16.5652 4.18957 16.8592 4.42629 17.0312C4.66301 17.2031 4.97814 17.2218 5.23346 17.0788L9.71636 14.5695L14.1993 17.0788C14.4546 17.2218 14.7697 17.2031 15.0064 17.0312C15.2431 16.8592 15.3582 16.5652 15.3012 16.2782L14.3 11.2393L18.0718 7.75125C18.2866 7.55258 18.3663 7.24713 18.2759 6.96885C18.1854 6.69057 17.9414 6.49028 17.6509 6.45583L12.5492 5.85094L10.3974 1.18587Z" fill="#8A9B9B"/>
</svg>
