<svg width="17" height="17" viewBox="0 0 17 17" fill="none" xmlns="http://www.w3.org/2000/svg">
<path d="M1.69995 8.92501C1.69995 8.75758 1.73293 8.59178 1.797 8.43709C1.86108 8.2824 1.955 8.14185 2.07339 8.02345C2.19178 7.90506 2.33234 7.81114 2.48703 7.74707C2.64172 7.68299 2.80752 7.65001 2.97495 7.65001C3.14239 7.65001 3.30818 7.68299 3.46287 7.74707C3.61756 7.81114 3.75812 7.90506 3.87651 8.02345C3.99491 8.14185 4.08882 8.2824 4.1529 8.43709C4.21697 8.59178 4.24995 8.75758 4.24995 8.92501V14.025C4.24995 14.3632 4.11562 14.6875 3.87651 14.9266C3.6374 15.1657 3.3131 15.3 2.97495 15.3C2.6368 15.3 2.3125 15.1657 2.07339 14.9266C1.83428 14.6875 1.69995 14.3632 1.69995 14.025V8.92501ZM5.09995 8.78306V13.3986C5.0998 13.7145 5.18769 14.0242 5.35374 14.2929C5.5198 14.5617 5.75746 14.7788 6.04005 14.9201L6.08255 14.9413C6.5542 15.177 7.07422 15.2998 7.6015 15.3H12.2051C12.5982 15.3002 12.9793 15.1641 13.2834 14.9148C13.5874 14.6656 13.7957 14.3187 13.8728 13.9332L14.8928 8.83321C14.9421 8.5866 14.9361 8.33213 14.8751 8.08814C14.8142 7.84414 14.6999 7.61671 14.5404 7.42222C14.381 7.22774 14.1804 7.07105 13.9531 6.96346C13.7258 6.85586 13.4774 6.80004 13.226 6.80001H10.2V3.40001C10.2 2.94914 10.0208 2.51674 9.70203 2.19793C9.38322 1.87912 8.95082 1.70001 8.49995 1.70001C8.27452 1.70001 8.05832 1.78957 7.89891 1.94897C7.7395 2.10838 7.64995 2.32458 7.64995 2.55001V3.11696C7.64995 3.85262 7.41135 4.56844 6.96995 5.15696L5.77995 6.74306C5.33856 7.33159 5.09995 8.0474 5.09995 8.78306Z" fill="#34A853"/>
</svg>
