<svg width="25" height="24" viewBox="0 0 25 24" fill="none" xmlns="http://www.w3.org/2000/svg">
<g clip-path="url(#clip0_230_69)">
<path d="M21.3027 8C21.4334 9.31562 21.5002 10.65 21.5002 12C21.5002 13.35 21.4334 14.6844 21.3027 16" stroke="#000223" stroke-width="1.5" stroke-linecap="round"/>
<path d="M13.5 12C13.5 10.1158 13.3372 8.26967 13.0248 6.47486C12.9022 5.77087 12.0882 5.4564 11.5053 5.86965L9.01965 7.63163C8.68158 7.87128 8.27742 8 7.86303 8H5.5C4.39543 8 3.5 8.89543 3.5 10V14C3.5 15.1046 4.39543 16 5.5 16H7.86303C8.27742 16 8.68158 16.1287 9.01965 16.3684L11.5053 18.1304C12.0882 18.5436 12.9022 18.2291 13.0248 17.5251C13.3372 15.7303 13.5 13.8842 13.5 12Z" stroke="#000223" stroke-width="1.5" stroke-linejoin="round"/>
<path d="M17.377 9C17.4586 9.9892 17.5002 10.9897 17.5002 12C17.5002 13.0103 17.4586 14.0108 17.377 15" stroke="#000223" stroke-width="1.5" stroke-linecap="round"/>
</g>
<defs>
<clipPath id="clip0_230_69">
<rect width="24" height="24" fill="white" transform="translate(0.5)"/>
</clipPath>
</defs>
</svg>
